<svg version="1.2" xmlns="http://www.w3.org/2000/svg" viewBox="0 0 256 256" width="256" height="256">
	<style>
		.s0 { fill: #000000 } 
	</style>
	<path id="typingisboring" class="s0" aria-label="typingisboring"  d="m36.8 120.9v4.3q-2.2-0.2-4-0.2v2.5q0 1.3 0.5 2.1 0.6 0.7 2 0.7 0.6 0 1.1-0.1-0.1 0.9-0.1 1.8 0 0.4 0.1 2-1.1 0.1-1.8 0.2-0.7 0-1.9 0-2.8 0-4-1.3-1.1-1.4-1.1-3.8v-4.1q-1.1 0.1-2.4 0.2v-4.3q1.3 0 2.2-0.7 0.8-0.8 1-1.9h6.5q-1.2 1.6-2.7 2.6zm11.4 0h5.5l-0.5 1.4q-2.3 6.1-4.8 11.7-1.3 2.9-3.8 4.6-2.4 1.8-6.1 1.7-0.5-2-0.8-3.1-0.3-1.1-0.7-2.3 1.3 0.3 2.4 0.3 1.9 0 3-0.7-0.8-2.6-2-5.6-1.2-2.9-3.4-8h5.7q0.2 1.2 0.7 2.8 0.6 1.6 1.1 3 0.1 0.5 0.4 1.4 0.3 0.9 0.5 1.6l0.7-1.9q1.8-5.2 2.1-6.9zm17.2-0.2q1.6 0 2.8 0.8 1.3 0.9 2 2.5 0.7 1.5 0.7 3.3 0 1.8-0.7 3.4-0.7 1.6-2 2.6-1.2 0.9-2.9 0.9-1.8 0-3.2-0.7-1.3-0.8-1.9-2.5 0 1.4 0.1 4.4 0.1 3 0.1 4.2h-5.5q0.2-4.5 0.2-9.4 0-4.8-0.2-9.3h4.6l0.7 3q0.7-1.7 2-2.5 1.4-0.7 3.2-0.7zm-2.6 9.2q1.1 0 1.8-0.7 0.8-0.6 0.8-1.8 0-1.2-0.7-1.9-0.7-0.8-1.8-0.8-1.3 0-2 0.6-0.7 0.7-0.7 2.1 0 0.9 0.5 1.5 0.4 0.5 1 0.8 0.6 0.2 1.1 0.2zm13.3-10.4q-1.5 0-2.2-0.8-0.7-0.7-0.7-1.9 0-1.2 0.7-2 0.7-0.7 2.2-0.7 1.5 0 2.3 0.8 0.7 0.7 0.7 1.9 0 1.2-0.7 1.9-0.8 0.8-2.3 0.8zm3 14.5h-5.7q0.1-3.9 0.1-6.4 0-3-0.2-6.7h5.8q-0.2 3.6-0.2 6.7 0 2.7 0.2 6.4zm16.6 0h-5.4q0.1-3.5 0.1-6.5 0-1.1-0.5-1.7-0.5-0.6-1.3-0.6-0.8 0-1.3 0.7-0.6 0.7-0.7 1.9 0 1.9 0 2.6 0 1.7 0.1 3.6h-5.8q0.2-3.5 0.2-6.5 0-3.1-0.2-6.6 1.6 0.1 2.5 0.1 0.8 0 2.4-0.1l0.7 3.5q0.5-1.9 1.7-2.8 1.2-0.9 2.7-0.9 1.5 0 2.5 0.6 1.1 0.6 1.6 1.7 0.6 1.1 0.6 2.4v3.5q0 3.2 0.1 5.1zm13-10.5l0.6-2.6h4.6q-0.2 3.9-0.2 11.2 0 2.8-1.1 4.7-1.1 1.8-3 2.6-1.9 0.8-4.2 0.8-2.3 0-4.1-0.6-1.8-0.7-2.7-1.8l1.1-3.7q1.3 0.8 2.4 1.1 1.2 0.3 2.4 0.3 4.1 0 4.1-3.4 0-0.5 0-0.7 0-0.2 0-0.4 0.1-0.3 0-0.6-1.2 3.4-5.2 3.4-1.6 0-2.8-0.9-1.3-0.9-2-2.3-0.7-1.5-0.7-3.3 0-1.8 0.7-3.3 0.7-1.6 2-2.5 1.2-0.8 2.8-0.8 4 0 5.3 2.8zm-2.8 6.4q0.6 0 1.2-0.2 0.6-0.3 1-0.8 0.5-0.6 0.5-1.5 0-1.4-0.7-2.1-0.7-0.6-2-0.6-1.2 0-1.8 0.8-0.7 0.7-0.7 1.9 0 1.2 0.7 1.8 0.8 0.7 1.8 0.7zm13.2-10.4q-1.5 0-2.2-0.8-0.7-0.7-0.7-1.9 0-1.2 0.7-2 0.7-0.7 2.2-0.7 1.5 0 2.3 0.8 0.7 0.7 0.7 1.9 0 1.2-0.7 1.9-0.8 0.8-2.3 0.8zm3 14.5h-5.7q0.1-3.9 0.1-6.4 0-3-0.2-6.7h5.8q-0.2 3.6-0.2 6.7 0 2.7 0.2 6.4zm9.6 0.2q-2 0-4.1-0.5-2.1-0.6-3.9-1.7l2.5-3.5q1.1 0.8 2.7 1.3 1.5 0.4 2.7 0.4 1 0 1.6-0.3 0.6-0.3 0.6-0.8 0-0.4-0.3-0.6-0.3-0.2-0.8-0.2-0.3 0-0.7 0-0.4 0.1-0.6 0.1-1.3 0.1-2.6 0.1-2.1 0-3.5-0.8-1.3-0.8-1.3-2.6 0-2.1 2-3.3 2-1.1 5.9-1.1 1.9 0 3.8 0.5 1.9 0.5 3.4 1.6l-2.7 2.8q-1.4-0.7-2.6-1-1.2-0.3-2.4-0.3-0.8 0-1.4 0.3-0.6 0.4-0.6 0.8 0 0.3 0.2 0.5 0.3 0.2 0.7 0.2 0.4 0 1.1-0.1 1.8-0.1 2.6-0.1 2.5 0 3.9 0.9 1.4 0.8 1.4 2.5 0 2.6-2.1 3.8-2 1.1-5.5 1.1zm19.6-13.5q1.7 0 2.9 0.9 1.3 1 2 2.6 0.7 1.6 0.7 3.4 0 1.8-0.7 3.4-0.7 1.5-2 2.4-1.2 0.8-2.8 0.8-1.8 0-3.2-0.7-1.3-0.8-2-2.5l-0.7 3h-4.6q0.2-4.5 0.2-9.3 0-4.9-0.2-9.4h5.5l-0.1 3q-0.1 3.1-0.1 5.5 0.6-1.6 1.9-2.4 1.4-0.7 3.2-0.7zm-2.4 9.5q1.1 0 1.8-0.8 0.7-0.7 0.7-2 0-1.1-0.8-1.7-0.7-0.7-1.8-0.7-0.5 0-1.1 0.2-0.6 0.3-1 0.9-0.5 0.5-0.5 1.3 0 1.5 0.7 2.2 0.7 0.6 2 0.6zm17.8 4q-4.1 0-6.1-1.8-1.9-1.9-1.9-5 0-3 1.9-4.9 2-1.8 6.1-1.8 2.7 0 4.6 0.9 1.8 0.9 2.7 2.4 0.9 1.5 0.9 3.4 0 3.1-2.1 5-2 1.8-6.1 1.8zm0.1-4q1.5 0 2.3-0.8 0.7-0.7 0.7-2 0-1.2-0.7-1.9-0.8-0.8-2.3-0.8-1.6 0-2.3 0.8-0.7 0.7-0.7 1.9 0 1.3 0.7 2 0.7 0.8 2.3 0.8zm14-9.3l0.7 3.5q1-3.6 5-3.6 0.7 0 1.4 0.1l-0.8 5.4q-1.7-0.7-2.8-0.7-1.4 0-2.1 0.9-0.6 0.8-0.6 2.1v1.6q0 1.7 0.1 3.8h-5.8q0.2-3.5 0.2-6.5 0-3.1-0.2-6.6 1.6 0.1 2.5 0.1 0.8 0 2.4-0.1zm12.3-1.4q-1.5 0-2.2-0.8-0.7-0.7-0.7-1.9 0-1.2 0.7-2 0.7-0.7 2.2-0.7 1.5 0 2.3 0.8 0.7 0.7 0.7 1.9 0 1.2-0.7 1.9-0.8 0.8-2.3 0.8zm3 14.5h-5.7q0.1-3.9 0.1-6.4 0-3-0.2-6.7h5.8q-0.2 3.6-0.2 6.7 0 2.7 0.2 6.4zm17.6 0h-5.4q0.1-3.5 0.1-6.5 0-1.1-0.5-1.7-0.5-0.6-1.3-0.6-0.8 0-1.3 0.7-0.6 0.7-0.7 1.9 0 1.9 0 2.6 0 1.7 0.1 3.6h-5.8q0.2-3.5 0.2-6.5 0-3.1-0.2-6.6 1.6 0.1 2.5 0.1 0.8 0 2.4-0.1l0.7 3.5q0.5-1.9 1.7-2.8 1.2-0.9 2.7-0.9 1.5 0 2.5 0.6 1.1 0.6 1.6 1.7 0.6 1.1 0.6 2.4v3.5q0 3.2 0.1 5.1zm12-10.5l0.6-2.6h4.6q-0.2 3.9-0.2 11.2 0 2.8-1.1 4.7-1.1 1.8-3 2.6-1.9 0.8-4.2 0.8-2.3 0-4.1-0.6-1.8-0.7-2.7-1.8l1.1-3.7q1.3 0.8 2.4 1.1 1.2 0.3 2.4 0.3 4.1 0 4.1-3.4 0-0.5 0-0.7 0-0.2 0-0.4 0.1-0.3 0-0.6-1.2 3.4-5.2 3.4-1.6 0-2.8-0.9-1.3-0.9-2-2.3-0.7-1.5-0.7-3.3 0-1.8 0.7-3.3 0.7-1.6 2-2.5 1.2-0.8 2.8-0.8 4 0 5.3 2.8zm-2.8 6.4q0.6 0 1.2-0.2 0.6-0.3 1-0.8 0.5-0.6 0.5-1.5 0-1.4-0.7-2.1-0.7-0.6-2-0.6-1.2 0-1.8 0.8-0.7 0.7-0.7 1.9 0 1.2 0.7 1.8 0.8 0.7 1.8 0.7z"/>
</svg>
